HIERARCHY
ROOT Hips
{
	OFFSET 0.000000 0.000000 0.000000
	CHANNELS 6 Xposition Yposition Zposition Zrotation Yrotation Xrotation 
	JOINT LHipJoint
	{
		OFFSET 0.000000 0.000000 0.000000
		CHANNELS 3 Zrotation Yrotation Xrotation
		JOINT LeftUpLeg
		{
			OFFSET 1.363060 -1.794630 0.839290
			CHANNELS 3 Zrotation Yrotation Xrotation
			JOINT LeftLeg
			{
				OFFSET 2.448110 -6.726130 0.000000
				CHANNELS 3 Zrotation Yrotation Xrotation
				JOINT LeftFoot
				{
					OFFSET 2.562200 -7.039590 0.000000
					CHANNELS 3 Zrotation Yrotation Xrotation
					JOINT LeftToeBase
					{
						OFFSET 0.157640 -0.433110 2.322550
						CHANNELS 3 Zrotation Yrotation Xrotation
						End Site
						{
							OFFSET 0.000000 0.000000 0.000000
						}
					}
				}
			}
		}
	}
	JOINT RHipJoint
	{
		OFFSET 0.000000 0.000000 0.000000
		CHANNELS 3 Zrotation Yrotation Xrotation
		JOINT RightUpLeg
		{
			OFFSET -1.305520 -1.794630 0.839290
			CHANNELS 3 Zrotation Yrotation Xrotation
			JOINT RightLeg
			{
				OFFSET -2.542530 -6.985550 0.000000
				CHANNELS 3 Zrotation Yrotation Xrotation
				JOINT RightFoot
				{
					OFFSET -2.568260 -7.056230 0.000000
					CHANNELS 3 Zrotation Yrotation Xrotation
					JOINT RightToeBase
					{
						OFFSET -0.164730 -0.452590 2.363150
						CHANNELS 3 Zrotation Yrotation Xrotation
						End Site
						{
							OFFSET 0.000000 0.000000 0.000000
						}
					}
				}
			}
		}
	}
	JOINT LowerBack
	{
		OFFSET 0.000000 0.000000 0.000000
		CHANNELS 3 Zrotation Yrotation Xrotation
		JOINT Spine
		{
			OFFSET 0.028270 2.035590 -0.193380
			CHANNELS 3 Zrotation Yrotation Xrotation
			JOINT Spine1
			{
				OFFSET 0.056720 2.048850 -0.042750
				CHANNELS 3 Zrotation Yrotation Xrotation
				JOINT Neck
				{
					OFFSET 0.000000 0.000000 0.000000
					CHANNELS 3 Zrotation Yrotation Xrotation
					JOINT Neck1
					{
						OFFSET -0.054170 1.746240 0.172020
						CHANNELS 3 Zrotation Yrotation Xrotation
						JOINT Head
						{
							OFFSET 0.104070 1.761360 -0.123970
							CHANNELS 3 Zrotation Yrotation Xrotation
							End Site
							{
								OFFSET 0.000000 0.000000 0.000000
							}
						}
					}
				}
				JOINT LeftShoulder
				{
					OFFSET 0.000000 0.000000 0.000000
					CHANNELS 3 Zrotation Yrotation Xrotation
					JOINT LeftArm
					{
						OFFSET 3.362410 1.200890 -0.311210
						CHANNELS 3 Zrotation Yrotation Xrotation
						JOINT LeftForeArm
						{
							OFFSET 4.983000 -0.000000 -0.000000
							CHANNELS 3 Zrotation Yrotation Xrotation
							JOINT LeftHand
							{
								OFFSET 3.483560 -0.000000 -0.000000
								CHANNELS 3 Zrotation Yrotation Xrotation
								JOINT LeftFingerBase
								{
									OFFSET 0.000000 0.000000 0.000000
									CHANNELS 3 Zrotation Yrotation Xrotation
									JOINT LeftHandIndex1
									{
										OFFSET 0.715260 -0.000000 -0.000000
										CHANNELS 3 Zrotation Yrotation Xrotation
										End Site
										{
											OFFSET 0.000000 0.000000 0.000000
										}
									}
								}
								JOINT LThumb
								{
									OFFSET 0.000000 0.000000 0.000000
									CHANNELS 3 Zrotation Yrotation Xrotation
									End Site
									{
										OFFSET 0.000000 0.000000 0.000000
									}
								}
							}
						}
					}
				}
				JOINT RightShoulder
				{
					OFFSET 0.000000 0.000000 0.000000
					CHANNELS 3 Zrotation Yrotation Xrotation
					JOINT RightArm
					{
						OFFSET -3.136600 1.374050 -0.404650
						CHANNELS 3 Zrotation Yrotation Xrotation
						JOINT RightForeArm
						{
							OFFSET -5.241900 -0.000000 -0.000000
							CHANNELS 3 Zrotation Yrotation Xrotation
							JOINT RightHand
							{
								OFFSET -3.444170 -0.000000 -0.000000
								CHANNELS 3 Zrotation Yrotation Xrotation
								JOINT RightFingerBase
								{
									OFFSET 0.000000 0.000000 0.000000
									CHANNELS 3 Zrotation Yrotation Xrotation
									JOINT RightHandIndex1
									{
										OFFSET -0.622530 -0.000000 -0.000000
										CHANNELS 3 Zrotation Yrotation Xrotation
										End Site
										{
											OFFSET 0.000000 0.000000 0.000000
										}
									}
								}
								JOINT RThumb
								{
									OFFSET 0.000000 0.000000 0.000000
									CHANNELS 3 Zrotation Yrotation Xrotation
									End Site
									{
										OFFSET 0.000000 0.000000 0.000000
									}
								}
							}
						}
					}
				}
			}
		}
	}
}
MOTION
Frames: 6
Frame Time: 0.008333
1.760027 15.372229 -1.312840 -166.441100 72.594944 -142.049865 -11.229590 -1.629025 -4.968885 -20.693576 1.165454 -47.575477 -1.070922 3.963303 67.072713 3.508204 11.745497 -35.361736 -6.274600 0.000001 -12.268300 8.889280 1.968946 -4.984137 7.148237 -5.246931 -60.378584 -1.861381 -6.992303 83.167446 -0.747838 -1.877484 -11.076608 0.103000 0.000000 -45.984900 -0.468739 -2.239888 14.032029 -0.375701 -2.029828 0.045326 -3.843064 -1.870722 -0.472095 2.496718 -6.126770 -2.473652 -1.552136 -0.156767 0.917034 0.000000 0.000000 0.000000 6.568753 7.681251 -0.844599 -69.244000 -16.091812 10.998077 -179.431139 -80.958537 179.941904 6.981769 2.736276 0.146535 -0.199813 0.421772 0.000000 0.000000 0.000000 0.000000 0.000000 0.000000 0.000000 -3.228582 -3.231304 0.520780 76.061415 -17.191682 19.671328 0.188779 71.394979 -0.042398 -16.323619 11.222444 -1.668722 0.156663 -0.271336 0.000000 0.000000 0.000000 0.000000 0.000000 0.000000 0.000000 
1.910153 15.418528 -1.357925 -167.055489 72.022447 -142.656702 -11.322674 -1.562993 -5.042023 -20.471134 1.528920 -46.604224 -1.112351 3.926916 66.532085 3.348051 11.173059 -34.697603 -5.881500 0.000000 -14.418700 8.742143 2.018996 -4.780976 7.257429 -4.576475 -61.080980 -1.696320 -6.893471 81.906314 -0.734084 -1.719135 -11.126532 0.098300 -0.000000 -46.155500 -0.238079 -2.362456 13.960138 -0.319317 -2.169240 0.048250 -3.787537 -2.013072 -0.420847 2.411342 -6.782765 -2.525688 -1.553945 -0.156791 0.907488 0.000000 0.000000 0.000000 7.146563 7.578208 -0.967375 -68.575229 -16.943665 10.489191 -179.362355 -79.728248 179.943375 6.670476 2.689899 0.136710 -0.194349 0.431843 0.000000 0.000000 0.000000 0.000000 0.000000 0.000000 0.000000 -3.294093 -3.953779 0.504417 75.011485 -18.728866 20.265744 0.170904 72.993540 -0.042198 -16.141491 11.123011 -1.635793 0.156154 -0.272361 0.000000 0.000000 0.000000 0.000000 0.000000 0.000000 0.000000 
2.063201 15.471960 -1.404942 -167.667118 71.484708 -143.268831 -11.408478 -1.483669 -5.104504 -20.241294 1.912094 -45.548886 -1.165939 3.876780 65.822928 3.170659 10.511793 -33.940207 -5.444200 0.000000 -16.442599 8.597474 2.056609 -4.587827 7.397374 -3.988134 -61.719761 -1.519103 -6.792995 80.523313 -0.732853 -1.637490 -11.159572 0.096100 -0.000001 -46.403500 -0.017067 -2.479628 13.878862 -0.264432 -2.305221 0.049733 -3.729556 -2.152668 -0.360508 2.307461 -7.481849 -2.585475 -1.545054 -0.156052 0.896170 0.000000 0.000000 0.000000 7.639709 7.501922 -1.077887 -67.776894 -17.677673 9.995488 -179.293224 -78.505170 179.945063 6.365951 2.612595 0.125588 -0.189099 0.441287 0.000000 0.000000 0.000000 0.000000 0.000000 0.000000 0.000000 -3.425590 -4.714706 0.469958 74.012934 -20.161584 20.860352 0.154453 74.637448 -0.041901 -15.868510 11.015540 -1.592767 0.154811 -0.273872 0.000000 0.000000 0.000000 0.000000 0.000000 0.000000 0.000000 
2.219623 15.531963 -1.453924 -168.299248 70.977924 -143.895365 -11.484993 -1.390744 -5.145857 -20.012183 2.284116 -44.430215 -1.223648 3.811232 64.949525 2.976600 9.790229 -33.024289 -4.965200 0.000000 -18.971800 8.456945 2.082565 -4.400851 7.570827 -3.489440 -62.318459 -1.333569 -6.692316 79.028235 -0.745889 -1.643842 -11.147817 0.095200 -0.000000 -46.789800 0.184408 -2.594103 13.772649 -0.212226 -2.440468 0.045540 -3.666848 -2.292318 -0.294281 2.191552 -8.184915 -2.646653 -1.525730 -0.154656 0.885107 0.000000 0.000000 0.000000 8.065145 7.452423 -1.176451 -66.894936 -18.280798 9.517166 -179.225626 -77.314589 179.946960 6.067705 2.476890 0.111870 -0.183841 0.450937 0.000000 0.000000 0.000000 0.000000 0.000000 0.000000 0.000000 -3.616085 -5.475377 0.420076 73.091032 -21.508446 21.411500 0.140012 76.281578 -0.041411 -15.482861 10.901570 -1.538149 0.152156 -0.275617 0.000000 0.000000 0.000000 0.000000 0.000000 0.000000 0.000000 
2.379328 15.598171 -1.505718 -168.920456 70.502905 -144.506580 -11.554842 -1.286094 -5.164231 -19.773608 2.636693 -43.258131 -1.286771 3.733033 63.936369 2.775713 9.030727 -32.030203 -4.476300 0.000000 -21.267700 8.318230 2.095327 -4.224516 7.803209 -3.089867 -62.875103 -1.140375 -6.591090 77.422625 -0.772163 -1.732660 -11.069478 0.093700 0.000000 -47.300700 0.380098 -2.707538 13.642928 -0.158512 -2.576389 0.036539 -3.595611 -2.433434 -0.218402 2.055261 -8.897285 -2.713198 -1.493710 -0.152361 0.873078 0.000000 0.000000 0.000000 8.404424 7.439037 -1.262903 -65.958197 -18.754960 9.049074 -179.159758 -76.154999 179.949018 5.774571 2.318309 0.097853 -0.178463 0.460110 -0.000000 0.000000 0.000000 0.000000 0.000000 0.000000 0.000000 -3.884872 -6.242726 0.359290 72.243272 -22.725889 21.965877 0.127397 77.862049 -0.040731 -15.033693 10.789088 -1.478135 0.148639 -0.277242 0.000000 0.000000 0.000000 0.000000 0.000000 0.000000 0.000000 
2.542335 15.670109 -1.560682 -169.522185 70.057446 -145.083511 -11.618638 -1.171497 -5.155052 -19.526419 2.955652 -42.059959 -1.347918 3.643316 62.801099 2.570215 8.265749 -30.911637 -3.984600 0.000000 -23.718300 8.181316 2.093821 -4.056254 8.104959 -2.786326 -63.404493 -0.940978 -6.489751 75.709294 -0.809620 -1.892843 -10.898905 0.088099 -0.000000 -47.947100 0.569604 -2.820537 13.482281 -0.102936 -2.713261 0.020242 -3.515301 -2.576339 -0.136012 1.903244 -9.594535 -2.784003 -1.450438 -0.149263 0.860450 0.000000 0.000000 0.000000 8.670550 7.463753 -1.337147 -65.010387 -19.094414 8.597541 -179.096401 -75.035726 179.951231 5.483425 2.138609 0.083736 -0.172793 0.468962 0.000000 0.000000 0.000000 0.000000 0.000000 0.000000 0.000000 -4.221498 -6.991398 0.290888 71.476202 -23.825076 22.505475 0.116480 79.355973 -0.039885 -14.535183 10.687227 -1.415629 0.144273 -0.278727 0.000000 0.000000 0.000000 0.000000 0.000000 0.000000 0.000000 
